<svg width="49" height="49" viewBox="0 0 49 49" fill="none" xmlns="http://www.w3.org/2000/svg">
<circle cx="24.5" cy="24.3691" r="24" fill="#FF0000"/>
<path d="M35.2754 19.9316C33.9629 14.1566 28.9254 11.5566 24.5004 11.5566C24.5004 11.5566 24.5004 11.5566 24.4879 11.5566C20.0754 11.5566 15.0254 14.1441 13.7129 19.9191C12.2504 26.3691 16.2004 31.8316 19.7754 35.2691C21.1004 36.5441 22.8004 37.1816 24.5004 37.1816C26.2004 37.1816 27.9004 36.5441 29.2129 35.2691C32.7879 31.8316 36.7379 26.3816 35.2754 19.9316ZM24.5004 26.1941C22.3254 26.1941 20.5629 24.4316 20.5629 22.2566C20.5629 20.0816 22.3254 18.3191 24.5004 18.3191C26.6754 18.3191 28.4379 20.0816 28.4379 22.2566C28.4379 24.4316 26.6754 26.1941 24.5004 26.1941Z" fill="white"/>
</svg>
