<svg width="63" height="63" viewBox="0 0 63 63" fill="none" xmlns="http://www.w3.org/2000/svg">
<rect x="0.5" y="0.369141" width="62" height="62" rx="10" fill="#B40001" fill-opacity="0.1"/>
<path opacity="0.15" fill-rule="evenodd" clip-rule="evenodd" d="M26.167 28.7028V42.0361H38.6475C39.9187 42.0361 41.0131 41.1389 41.2624 39.8924L42.8624 31.8924C43.1924 30.2423 41.9303 28.7028 40.2475 28.7028H34.167L37.4013 23.8513C38.4242 22.3169 37.6183 20.2323 35.8293 19.785L35.7659 19.7692C34.786 19.5242 33.7518 19.8539 33.0944 20.6208L26.167 28.7028Z" fill="#FF0000"/>
<path d="M26.1663 28.7028V42.0361M26.1663 28.7028L20.833 28.7028V42.0361L26.1663 42.0361M26.1663 28.7028L33.0938 20.6208C33.7511 19.8539 34.7853 19.5242 35.7652 19.7692L35.8286 19.785C37.6177 20.2323 38.4236 22.3169 37.4007 23.8513L34.1663 28.7028H40.2469C41.9297 28.7028 43.1918 30.2423 42.8617 31.8924L41.2617 39.8924C41.0125 41.1389 39.918 42.0361 38.6469 42.0361L26.1663 42.0361" stroke="#FF0000" stroke-width="2.0625" stroke-linecap="round" stroke-linejoin="round"/>
<!-- Code injected by live-server -->
<script>
	// <![CDATA[  <-- For SVG support
	if ('WebSocket' in window) {
		(function () {
			function refreshCSS() {
				var sheets = [].slice.call(document.getElementsByTagName("link"));
				var head = document.getElementsByTagName("head")[0];
				for (var i = 0; i < sheets.length; ++i) {
					var elem = sheets[i];
					var parent = elem.parentElement || head;
					parent.removeChild(elem);
					var rel = elem.rel;
					if (elem.href && typeof rel != "string" || rel.length == 0 || rel.toLowerCase() == "stylesheet") {
						var url = elem.href.replace(/(&|\?)_cacheOverride=\d+/, '');
						elem.href = url + (url.indexOf('?') >= 0 ? '&' : '?') + '_cacheOverride=' + (new Date().valueOf());
					}
					parent.appendChild(elem);
				}
			}
			var protocol = window.location.protocol === 'http:' ? 'ws://' : 'wss://';
			var address = protocol + window.location.host + window.location.pathname + '/ws';
			var socket = new WebSocket(address);
			socket.onmessage = function (msg) {
				if (msg.data == 'reload') window.location.reload();
				else if (msg.data == 'refreshcss') refreshCSS();
			};
			if (sessionStorage && !sessionStorage.getItem('IsThisFirstTime_Log_From_LiveServer')) {
				console.log('Live reload enabled.');
				sessionStorage.setItem('IsThisFirstTime_Log_From_LiveServer', true);
			}
		})();
	}
	else {
		console.error('Upgrade your browser. This Browser is NOT supported WebSocket for Live-Reloading.');
	}
	// ]]>
</script>
</svg>
