<svg width="33" height="33" viewBox="0 0 33 33" fill="none" xmlns="http://www.w3.org/2000/svg">
<g clip-path="url(#clip0_87690_1904)">
<path d="M16.5 0.369141C7.66375 0.369141 0.5 7.53289 0.5 16.3691C0.5 25.2054 7.66375 32.3691 16.5 32.3691C25.3363 32.3691 32.5 25.2054 32.5 16.3691C32.5 7.53289 25.3363 0.369141 16.5 0.369141Z" fill="#FF0000"/>
<path d="M18.2506 14.9209L25.1 6.95898H23.4769L17.5296 13.8722L12.7795 6.95898H7.30078L14.4839 17.4129L7.30078 25.7622H8.92397L15.2045 18.4616L20.221 25.7622H25.6997L18.2502 14.9209H18.2506ZM9.50881 8.1809H12.0019L23.4777 24.5959H20.9846L9.50881 8.1809Z" fill="white"/>
</g>
<defs>
<clipPath id="clip0_87690_1904">
<rect width="32" height="32" fill="white" transform="translate(0.5 0.369141)"/>
</clipPath>
</defs>
<!-- Code injected by live-server -->
<script>
	// <![CDATA[  <-- For SVG support
	if ('WebSocket' in window) {
		(function () {
			function refreshCSS() {
				var sheets = [].slice.call(document.getElementsByTagName("link"));
				var head = document.getElementsByTagName("head")[0];
				for (var i = 0; i < sheets.length; ++i) {
					var elem = sheets[i];
					var parent = elem.parentElement || head;
					parent.removeChild(elem);
					var rel = elem.rel;
					if (elem.href && typeof rel != "string" || rel.length == 0 || rel.toLowerCase() == "stylesheet") {
						var url = elem.href.replace(/(&|\?)_cacheOverride=\d+/, '');
						elem.href = url + (url.indexOf('?') >= 0 ? '&' : '?') + '_cacheOverride=' + (new Date().valueOf());
					}
					parent.appendChild(elem);
				}
			}
			var protocol = window.location.protocol === 'http:' ? 'ws://' : 'wss://';
			var address = protocol + window.location.host + window.location.pathname + '/ws';
			var socket = new WebSocket(address);
			socket.onmessage = function (msg) {
				if (msg.data == 'reload') window.location.reload();
				else if (msg.data == 'refreshcss') refreshCSS();
			};
			if (sessionStorage && !sessionStorage.getItem('IsThisFirstTime_Log_From_LiveServer')) {
				console.log('Live reload enabled.');
				sessionStorage.setItem('IsThisFirstTime_Log_From_LiveServer', true);
			}
		})();
	}
	else {
		console.error('Upgrade your browser. This Browser is NOT supported WebSocket for Live-Reloading.');
	}
	// ]]>
</script>
</svg>
